<svg height="936.96002" width="936.96002" xmlns="http://www.w3.org/2000/svg">
  <path d="M 0,468.48 Q 0,373.32 37.088,286.456 74.176,199.592 136.884,136.884 199.592,74.176 286.456,37.088 373.32,0 468.48,0 q 95.16,0 182.024,37.088 86.864,37.088 149.572,99.796 62.708,62.708 99.796,149.572 37.088,86.864 37.088,182.024 0,95.16 -37.088,182.024 -37.088,86.864 -99.796,149.572 -62.708,62.708 -149.572,99.796 -86.864,37.088 -182.024,37.088 -95.16,0 -182.024,-37.088 Q 199.592,862.784 136.884,800.076 74.176,737.368 37.088,650.504 0,563.64 0,468.48 Z m 117.12,0 q 0,95.648 47.092,176.412 47.092,80.764 128.1,127.856 81.008,47.092 176.168,47.092 95.648,0 176.412,-47.092 80.764,-47.092 127.856,-127.856 47.092,-80.764 47.092,-176.412 0,-95.16 -47.092,-176.168 -47.092,-81.008 -127.856,-128.1 -80.764,-47.092 -176.412,-47.092 -71.248,0 -136.396,27.816 -65.148,27.816 -112.24,74.908 -47.092,47.092 -74.908,112.24 -27.816,65.148 -27.816,136.396 z m 292.8,0 V 244 q 0,-23.912 17.08,-41.236 17.08,-17.324 41.48,-17.324 24.4,0 41.48,17.324 17.08,17.324 17.08,41.236 V 444.08 L 668.56,585.6 q 17.08,17.08 17.08,41.48 0,24.4 -17.08,41.48 -17.08,17.08 -40.992,17.08 -24.4,0 -41.48,-17.08 L 427,509.96 q -1.464,-1.464 -3.66,-4.636 -2.196,-3.172 -3.172,-4.148 -0.976,-1.464 -2.44,-4.392 l -1.464,-2.928 q 0,0 -1.464,-3.416 -0.488,-0.488 -1.952,-5.368 -1.464,-4.392 -1.464,-4.88 -1.464,-5.856 -1.464,-11.712 z" />
</svg>